PathFileType	4	(X/Y/Z)	C:\Users\chris\Documents\GitHub\baseballds\vids\pitch6_Sports2D\pitch6_Sports2D_px_person00.trc
DataRate	CameraRate	NumFrames	NumMarkers	Units	OrigDataRate	OrigDataStartFrame	OrigNumFrames
30	30	11	22	m	30	0	186
Frame#	Time	Hip			RHip			RKnee			RAnkle			RBigToe			RSmallToe			RHeel			LHip			LKnee			LAnkle			LBigToe			LSmallToe			LHeel			Neck			Head			Nose			RShoulder			RElbow			RWrist			LShoulder			LElbow			LWrist		
		X1	Y1	Z1	X2	Y2	Z2	X3	Y3	Z3	X4	Y4	Z4	X5	Y5	Z5	X6	Y6	Z6	X7	Y7	Z7	X8	Y8	Z8	X9	Y9	Z9	X10	Y10	Z10	X11	Y11	Z11	X12	Y12	Z12	X13	Y13	Z13	X14	Y14	Z14	X15	Y15	Z15	X16	Y16	Z16	X17	Y17	Z17	X18	Y18	Z18	X19	Y19	Z19	X20	Y20	Z20	X21	Y21	Z21	X22	Y22	Z22
0	0.0	628.2420454606342	555.8511938374413	0.0	579.8079210144026	572.8031372423151	0.0	574.9645086783088	752.0093975985059	0.0	567.6993901623855	904.5768895175339	0.0	550.7474463307718	974.8063685804673	0.0	528.9520904431588	967.541249959354	0.0	579.8079213453977	931.2156578333147	0.0	674.254463647239	570.381431132877	0.0	703.314938510176	744.7442789992228	0.0	732.375413443177	894.8900646261823	0.0	713.001761656512	957.854422437412	0.0	744.4839421764713	955.4327162072348	0.0	734.7971172486057	916.6854171394803	0.0	630.6637509136465	303.99374892021245	0.0	645.1939881166211	190.17355760233596	0.0	688.7846997135858	248.2945061339811	0.0	541.0606213177573	352.42787110277465	0.0	512.0001469199918	471.09147635710826	0.0	558.012566000567	514.6821874017835	0.0	715.4234695786074	337.8976336161538	0.0	756.592474956887	449.29612091940703	0.0	795.3397737888714	536.4775436914645	0.0
1	0.03333333333333333	624.46933605308	558.4670543692257	0.0	576.4934270075299	571.3446877291075	0.0	573.8868028948294	751.8796697566795	0.0	567.0963490231334	904.05123617681	0.0	555.1116726655216	973.6291606581927	0.0	530.9635913723635	967.1125824577831	0.0	578.623052384969	926.9668381094093	0.0	673.0606133146402	570.2922011215013	0.0	700.1750462755024	743.8091675094331	0.0	730.9017193999591	896.6917526623972	0.0	708.149693601899	961.8637862850092	0.0	740.9823603371933	958.4902434112357	0.0	734.9749355861343	917.0236073736262	0.0	623.0578316505996	305.35747330552334	0.0	641.1678451938544	193.27549176788688	0.0	679.7945826774826	254.89729826385636	0.0	534.8803839717647	356.10607753132854	0.0	508.3722694818881	472.9431903403641	0.0	561.072195506657	512.9331576600085	0.0	708.2717106899028	340.0213044106097	0.0	744.9511674526533	451.0091458101706	0.0	787.0321010463617	526.85091198533	0.0
2	0.06666666666666667	621.9068666000232	558.9184038379085	0.0	574.0078882512017	568.8626847457434	0.0	571.9685045071263	751.0277621993032	0.0	566.0959752294222	902.9402088771881	0.0	558.6870429036982	972.8557032500373	0.0	532.5635444285233	966.736797100709	0.0	576.7896386475766	925.4075197777664	0.0	671.0717552901416	567.7956706111196	0.0	696.7751249762541	743.1336070129036	0.0	730.3142025856147	897.3297942309392	0.0	707.9497098867308	961.191030574453	0.0	740.2462241327146	957.6531567320529	0.0	735.3164100710317	918.5746134592351	0.0	617.4135798456927	307.10062790160214	0.0	635.277977302467	193.5495522079277	0.0	668.4702164612506	262.06298763793427	0.0	529.610597318909	358.14839994471424	0.0	505.3875731933515	476.8682510984663	0.0	563.874588456817	511.8190281904398	0.0	702.3150687338821	341.1659187393456	0.0	733.8909298125075	453.0141592081012	0.0	777.0308148666298	522.1352313130411	0.0
3	0.1	620.0377741381394	557.9329988323628	0.0	571.8033598528806	565.7368817713981	0.0	569.828153548653	749.972028839036	0.0	564.3538825061498	896.6914633137449	0.0	561.0137506239909	972.978440684732	0.0	533.7488664490689	966.9016003212457	0.0	575.1041654097156	926.6136213069151	0.0	668.572834290718	564.0497588358918	0.0	694.1863843067438	742.9731137029578	0.0	730.3654049810477	892.5655676006489	0.0	717.0374125192902	946.9288306683897	0.0	744.3950686309845	943.9764980445576	0.0	735.5772645302402	920.3862682356487	0.0	613.3832501383679	312.40649282502716	0.0	628.6062811906982	192.31196359291965	0.0	652.7958401990593	275.64751421866924	0.0	525.0889974640014	358.94560359157833	0.0	503.14726270721644	482.77406149860434	0.0	567.392245419093	511.4105046865926	0.0	698.2552875460658	341.7505635025077	0.0	724.9013575852007	455.94549249117426	0.0	764.1409772683303	523.182701979033	0.0
4	0.13333333333333333	617.943092998821	557.5961136678706	0.0	569.2327795172857	563.0325961439931	0.0	568.5720110549693	749.694185061187	0.0	561.8995494140844	882.9456576124567	0.0	562.1142821085172	973.6702541120304	0.0	534.6768330793029	967.8270790600616	0.0	574.7855335296491	929.0775875697072	0.0	666.6057616512226	561.8439779878988	0.0	693.3735240462236	743.719533921962	0.0	730.2500312642467	880.4980548206598	0.0	735.0879082183849	916.7324236042612	0.0	753.1553606121297	914.7716202400851	0.0	735.2806697250585	920.8773294167744	0.0	609.110414065354	323.25321044832606	0.0	622.9615547648115	193.15642476657433	0.0	633.2173098747701	298.84059506788265	0.0	520.6455482558273	360.09644151065334	0.0	501.47370690484445	488.9511687789972	0.0	572.5431784222405	511.2977005200637	0.0	695.6697997802803	343.03366916262354	0.0	718.4805366422888	460.4284429738878	0.0	747.2680914264648	527.1837511026886	0.0
5	0.16666666666666666	615.858128189054	559.2940975885252	0.0	566.7762090017189	562.1765380850744	0.0	568.0015659533401	750.1457442077356	0.0	560.0165172745658	870.5361611582332	0.0	562.4894681302285	974.217433282808	0.0	535.4595021522642	969.1547978884549	0.0	575.8058428410669	931.7047339681102	0.0	665.3370049872709	562.7686654871418	0.0	693.7624477583995	745.307497454113	0.0	729.8774517337853	868.5728807858003	0.0	750.8515294494306	889.8950979864738	0.0	761.0430201445918	888.6702178887023	0.0	734.3724475896436	919.9912279356183	0.0	604.2658308845608	334.1913967964407	0.0	618.4341805904972	197.06921484458886	0.0	616.0302547427946	320.5779145243673	0.0	516.1339865352799	362.79017492946923	0.0	500.17307035708427	494.1567727560915	0.0	579.1353052577347	511.52956489786084	0.0	693.5392212882872	345.79589108739077	0.0	713.680855374157	466.20292284389853	0.0	727.5366052909934	530.6617992265948	0.0
6	0.2	614.6923920487696	563.345996673125	0.0	565.4202582391396	564.5619621672015	0.0	567.0542401581577	750.4631358448486	0.0	560.5867014627415	873.1369761128087	0.0	562.6876719406334	974.4699321366114	0.0	536.1407958162989	970.4147023526419	0.0	577.1755384320275	934.0137385250353	0.0	663.9984958074451	566.9118821180508	0.0	694.1603994189584	746.9894187291657	0.0	729.823365377909	868.1012109659105	0.0	749.4699549433049	894.2380742732618	0.0	760.5687450260182	892.5602017006795	0.0	733.3081773265613	918.7410664960144	0.0	600.609538905161	336.0565513289325	0.0	614.5567718974495	201.91340114977083	0.0	610.2846137220614	323.13168720377723	0.0	512.196559596642	367.14137369166764	0.0	499.1516231816761	497.9630565430923	0.0	586.0789556043637	512.6738731426187	0.0	691.4546577518045	349.8147523826403	0.0	710.0514091582506	471.945354508814	0.0	709.546654039407	531.5187612634464	0.0
7	0.23333333333333334	614.6915887671561	568.1864626311914	0.0	565.3809539516187	569.1136724273703	0.0	565.6249257027273	750.2751960829955	0.0	563.3350671482261	889.8426239248207	0.0	562.8758436725495	974.5834700634615	0.0	536.6322431809796	971.2713600128533	0.0	578.1188553147672	935.5991530079738	0.0	662.4981084760268	572.2919734983165	0.0	694.1166941409246	748.0726585041418	0.0	730.2531920306291	879.0992767490895	0.0	732.1451187856048	927.7307949467429	0.0	752.1358293961475	924.5435527906229	0.0	732.5539279437132	917.8865217359718	0.0	599.3082807423186	328.3544748046743	0.0	611.7438784012817	205.37768460601112	0.0	616.3495073721886	306.3728447319485	0.0	509.70721702465926	371.65558447096817	0.0	498.4992795256758	500.0937242839875	0.0	591.5239209873178	514.4724109966096	0.0	689.8399628490029	353.6963573160633	0.0	707.9873010143103	476.0174771936987	0.0	698.1359474084065	530.0958900210669	0.0
8	0.26666666666666666	615.1403331565634	571.2342332510805	0.0	565.8577116423204	572.5451042559048	0.0	564.5900269184607	749.9465561169939	0.0	565.7532421975022	904.8850299875198	0.0	562.9853776933252	974.6268894312763	0.0	536.8452487324746	971.6120247680352	0.0	578.4660946742474	936.2537442467337	0.0	661.5320654176559	575.7984544571377	0.0	693.9067164340546	748.4380147370491	0.0	730.7032963001375	889.8376740505345	0.0	716.0979171353246	958.1841802603016	0.0	744.232431813594	953.7159461378524	0.0	732.2574611243424	917.5779783899497	0.0	599.5184243982387	320.2183317977168	0.0	610.5118721772523	206.73373074456313	0.0	624.3447868168647	289.2931464103181	0.0	508.83941536889404	374.27798656434436	0.0	498.2601093605326	500.72935964362205	0.0	594.0715247630151	515.7734757113849	0.0	689.1106975618547	355.84219037742236	0.0	707.4095643221763	477.69438171030527	0.0	694.1753293267222	528.4760691572573	0.0
9	0.3	615.3779623811473	571.8702660089638	0.0	566.1180898714798	573.4451329718356	0.0	564.3296875506671	749.8070824206859	0.0	566.4797528384878	909.477295063049	0.0	563.0028088674379	974.6230277705683	0.0	536.8579154686952	971.6134957023102	0.0	578.4584843199391	936.2772034788645	0.0	661.3201968733025	576.5688663079445	0.0	693.8039144774121	748.4088931513127	0.0	730.8530828809184	893.3005812406773	0.0	711.0976122052954	967.5540793834105	0.0	741.7482952536125	962.7107642781439	0.0	732.2539571678468	917.5875894784418	0.0	599.8985146720863	317.460818431251	0.0	610.4301470906173	206.74696915061702	0.0	627.3603696426057	283.62499940289524	0.0	508.8856637590709	374.7559075162243	0.0	498.2666159931096	500.6373651729717	0.0	594.3195839128575	516.1025243656395	0.0	689.0529936977206	356.19621670387653	0.0	707.5259459407505	477.75850930425077	0.0	694.3887854148326	527.9127304939475	0.0
10	0.3333333333333333	615.3792043614465	571.5092280427285	0.0	566.1219773760774	573.1065259325819	0.0	564.4371899717106	749.8216228816557	0.0	566.2757663441025	908.2315788815388	0.0	562.987370347516	974.610587048113	0.0	536.8206969920323	971.5448303716748	0.0	578.3887680984071	936.1600852113195	0.0	661.4326849334486	576.1677213751244	0.0	693.8088287613168	748.3283274656752	0.0	730.822469419297	892.4805536263586	0.0	712.3928450772696	965.0532731747494	0.0	742.3782339204246	960.3218621211316	0.0	732.3113562424636	917.652152131717	0.0	599.9984161252547	318.0350655882115	0.0	610.6418642013164	206.48676851145646	0.0	626.9098073986681	284.87487451538607	0.0	509.0735443520424	374.41824069410654	0.0	498.31657491275337	500.4791371422258	0.0	593.9136545456166	515.9691459833928	0.0	689.1765250726087	355.9059600280249	0.0	707.6841407709232	477.4544212751433	0.0	695.2447387964978	528.0222313590311	0.0
